<svg width="73" height="75" fill="none" xmlns="http://www.w3.org/2000/svg"><path d="M72.3 39.418c-1.118-3.702-3.33-6.545-6.397-8.224-1.891-1.035-3.99-1.56-6.235-1.56-6.675 0-13.543 4.62-17.496 11.77a25.473 25.473 0 00-2.663 7.13c.441-2.763 1.24-6.36 2.622-8.943 1.532-2.752 5.601-10.061 5.74-14.785.136-4.736-4.191-11.749-7.575-17.387-1.907-3.174-3.825-6.175-3.825-7.272V.004h-.77v.143c0 1.095-1.728 4.094-3.636 7.272-3.381 5.636-7.555 12.65-7.42 17.387.138 4.726 4.236 12.053 5.771 14.81 1.394 2.605 2.2 6.176 2.647 9.063a25.45 25.45 0 00-2.687-7.275c-3.954-7.15-10.82-11.77-17.493-11.77-2.246 0-4.343.525-6.235 1.56-3.065 1.677-5.278 4.527-6.401 8.25-1.009 4.388 1.135 9.259 5.334 12.119a13.217 13.217 0 004.75 2.035l.714.15-.28-.671c-1.356-3.245-1.07-6.358.768-8.327 1.208-1.295 2.995-2.008 5.032-2.008 2.748 0 5.673 1.179 8.026 3.35 1.567 1.447 2.75 3.651 3.435 5.181h-2.612c-1.015 0-1.842.904-1.842 1.914 0 1.01.826 1.913 1.842 1.913h3.266c.001 0 .098.05.098.09v.103c0 2.203-1.85 3.995-4.064 3.995s-4.04-1.792-4.04-3.995a4.007 4.007 0 012.567-3.73l.143-.214-.133-.84h-.16c-5.162 0-9.363 3.552-9.363 7.726 0 4.19 4.15 7.675 9.253 7.675 3.524 0 6.7-1.482 8.29-3.96 1.162-1.973 1.906-4.555 2.155-6.85h.032l-.368 5.117c-.506.24-1.354.998-2.072 3.392-.878 2.926-2.373 3.892-2.388 3.902l-1.026.598h1.243c1.77 0 2.892-.548 3.565-.933.066-.039.153-.04.232-.085v.098c0 1.616 2.978 5.884 3.318 6.364l.315.451.134-.442c.34-.48 3.137-4.734 3.137-6.348v-.073c.77.043.345-.005.413.034.67.386 1.973.933 3.744.933h1.242l-1.025-.601c-.016-.01-1.508-1.024-2.388-3.955-.718-2.394-1.565-3.118-2.072-3.36l-.368-5.093h.032c.249 2.296.995 4.92 2.163 6.904 1.585 2.467 4.759 3.993 8.282 3.993 5.103 0 9.253-3.568 9.253-7.758 0-4.173-4.2-7.73-9.363-7.73h-.159l-.128.84.15.136c1.543.587 2.579 2.125 2.579 3.77 0 2.202-1.655 4.015-3.87 4.015-2.213 0-3.869-1.774-3.869-3.977V55.1h2.645c1.015 0 1.842-.903 1.842-1.913s-.826-1.913-1.842-1.913h-2.283c.684-1.53 1.868-3.736 3.435-5.181 2.353-2.171 5.278-3.384 8.028-3.384 2.067 0 3.806.711 5.03 2.025 1.838 1.97 2.126 5.09.77 8.335l-.28.676.715-.148a13.23 13.23 0 004.749-2.034c4.198-2.86 6.34-7.735 5.326-12.144z" fill="#fff" fill-opacity=".1"/></svg>