<svg width="45" height="45" fill="none" xmlns="http://www.w3.org/2000/svg"><rect width="45" height="45" rx="22.5" fill="#F5F2ED" fill-opacity=".3"/><path d="M22.5 13.283h4.608c1.085 0 1.627.271 2.034.407.542.27.948.406 1.355.813.407.407.678.813.813 1.355.136.407.271.95.407 2.034v9.216c0 1.085-.271 1.627-.407 2.034-.27.542-.406.948-.813 1.355-.407.407-.813.678-1.355.813-.407.136-.95.271-2.034.407h-9.216c-1.085 0-1.627-.271-2.034-.407-.542-.27-.948-.406-1.355-.813-.407-.407-.678-.813-.813-1.355-.136-.407-.271-.95-.407-2.034v-9.216c0-1.085.271-1.627.407-2.034.27-.542.406-.948.813-1.355.407-.407.813-.678 1.355-.813.407-.136.95-.271 2.034-.407H22.5zm0-2.033h-4.608c-1.22 0-2.034.271-2.711.542a5.919 5.919 0 00-2.033 1.356c-.678.677-.95 1.22-1.356 2.033-.27.677-.406 1.49-.542 2.71v9.218c0 1.22.271 2.034.542 2.711a5.919 5.919 0 001.356 2.033c.677.678 1.22.95 2.033 1.356.677.27 1.49.407 2.71.542h9.218c1.22 0 2.034-.271 2.711-.542a5.919 5.919 0 002.033-1.356c.678-.677.95-1.22 1.356-2.033.27-.677.407-1.49.542-2.71v-9.218c0-1.22-.271-2.034-.542-2.711a5.919 5.919 0 00-1.356-2.033c-.677-.678-1.22-.95-2.033-1.356-.677-.27-1.49-.406-2.71-.542H22.5z" fill="#fff"/><path d="M22.5 16.672a5.785 5.785 0 00-5.828 5.828 5.785 5.785 0 005.828 5.828 5.785 5.785 0 005.828-5.828 5.785 5.785 0 00-5.828-5.828zm0 9.623c-2.033 0-3.795-1.626-3.795-3.795 0-2.033 1.626-3.795 3.795-3.795 2.033 0 3.795 1.626 3.795 3.795 0 2.033-1.762 3.795-3.795 3.795zm5.964-8.403a1.356 1.356 0 100-2.711 1.356 1.356 0 000 2.71z" fill="#fff"/></svg>