<svg width="50" height="51" fill="none" xmlns="http://www.w3.org/2000/svg"><path d="M49.828 27.164c-.77-2.552-2.295-4.511-4.408-5.668-1.304-.714-2.75-1.075-4.298-1.075-4.6 0-9.333 3.184-12.057 8.11a17.553 17.553 0 00-1.836 4.916c.305-1.905.855-4.384 1.807-6.164 1.056-1.897 3.86-6.934 3.956-10.19.094-3.264-2.888-8.097-5.22-11.983C26.457 2.922 25.135.855 25.135.1V0h-.53v.099c0 .754-1.191 2.821-2.506 5.011-2.33 3.884-5.207 8.719-5.113 11.983.094 3.257 2.919 8.307 3.976 10.206.961 1.796 1.516 4.257 1.825 6.247a17.565 17.565 0 00-1.852-5.014c-2.726-4.927-7.457-8.111-12.056-8.111-1.548 0-2.993.361-4.297 1.075C2.469 22.65.944 24.616.17 27.18c-.695 3.025.782 6.381 3.676 8.352a9.112 9.112 0 003.274 1.403l.492.103-.193-.462c-.934-2.236-.737-4.381.53-5.739.832-.892 2.064-1.384 3.467-1.384 1.894 0 3.91.813 5.532 2.309 1.08.997 1.896 2.516 2.367 3.571h-1.8c-.7 0-1.27.623-1.27 1.319s.57 1.318 1.27 1.318h2.251s.068.035.068.062v.071c0 1.518-1.276 2.754-2.801 2.754-1.526 0-2.784-1.236-2.784-2.754 0-1.133.705-2.166 1.768-2.57l.1-.148-.093-.579h-.11c-3.558 0-6.453 2.448-6.453 5.325 0 2.887 2.86 5.29 6.377 5.29 2.43 0 4.617-1.022 5.713-2.73.802-1.36 1.314-3.139 1.486-4.721h.022l-.254 3.527c-.349.166-.933.688-1.428 2.338-.605 2.016-1.635 2.682-1.645 2.689l-.708.412h.857c1.22 0 1.993-.377 2.457-.643.046-.027.105-.028.16-.059v.068c0 1.113 2.052 4.055 2.287 4.386L25 51l.093-.305c.234-.33 2.162-3.262 2.162-4.375v-.05c.53.03.238-.004.285.023.462.266 1.36.644 2.58.644h.856l-.707-.415c-.01-.007-1.039-.706-1.645-2.725-.495-1.65-1.079-2.15-1.428-2.316l-.254-3.51h.023c.17 1.582.685 3.39 1.49 4.758 1.092 1.7 3.28 2.752 5.708 2.752 3.517 0 6.377-2.46 6.377-5.347 0-2.876-2.895-5.327-6.453-5.327h-.11l-.088.578.103.094c1.064.405 1.778 1.465 1.778 2.598 0 1.518-1.141 2.767-2.667 2.767-1.525 0-2.667-1.222-2.667-2.74v-.133h1.823c.7 0 1.27-.622 1.27-1.318 0-.696-.57-1.319-1.27-1.319h-1.573c.471-1.054 1.287-2.574 2.367-3.57 1.622-1.497 3.638-2.332 5.533-2.332 1.424 0 2.623.49 3.467 1.395 1.266 1.357 1.465 3.508.53 5.745l-.193.465.493-.102a9.115 9.115 0 003.273-1.401c2.894-1.971 4.37-5.331 3.67-8.37z" fill="#FFEA00"/></svg>